<?xml version="1.0" encoding="UTF-8"?> <svg xmlns="http://www.w3.org/2000/svg" width="157" height="51" viewBox="0 0 157 51" fill="none"><path d="M15.5116 19.0771L15.5 19.0926C15.5 19.0926 15.5077 19.081 15.5116 19.0771Z" fill="#95C11F"></path><path d="M56.8805 45.6268L56.8699 45.5986C51.8921 47.7808 45.2821 48.5317 40.6286 46.9876C35.2454 45.2002 30.8846 41.4175 28.3639 36.341C26.3968 32.375 26.1606 27.9965 27.3557 24.0728C27.5496 26.0505 28.0467 27.9754 28.8258 29.7804C30.7435 34.2364 34.357 37.9521 39.2079 39.884C44.0094 41.7912 49.1881 42.0591 54.0849 40.6913L52.9074 38.6536C48.6558 39.7113 44.1963 39.4186 40.0505 37.7723C36.1585 36.2282 33.1831 33.3586 31.4063 29.8967C31.4063 29.8967 31.4063 29.9002 31.4169 29.9002C32.0585 30.08 32.6754 30.3303 33.2395 30.6793C37.9635 33.5948 43.8755 34.3809 49.3538 32.4949L48.1975 30.4854C44.9225 31.5184 41.4923 31.476 38.3477 30.5172C38.3759 30.5172 38.4076 30.5101 38.4358 30.5101C42.772 30.073 45.1657 25.2362 42.9871 21.4605L31.6143 1.76091C30.257 -0.58697 26.8692 -0.58697 25.5119 1.76091L15.5176 19.0739C15.5176 19.0739 15.5176 19.0704 15.5246 19.0668C17.0687 17.0398 19.0711 15.3405 21.4366 14.149C21.4754 14.1349 21.5071 14.1172 21.5424 14.0996C25.385 12.1924 29.7141 11.854 33.7965 13.0984C26.9573 13.7612 20.7104 18.1326 17.9994 24.9436C15.641 30.8803 15.7961 37.3845 18.4295 43.2225C19.5647 45.7431 21.5741 48.2355 23.9996 50.3931H26.9467C24.0806 48.2179 21.8103 45.3307 20.3438 41.9393C18.1122 36.7605 18.0276 31.0248 20.1111 25.7861C21.6552 21.8942 24.5248 18.9188 27.9867 17.142C27.9867 17.142 27.9867 17.1455 27.9867 17.1526C27.8105 17.7801 27.5707 18.39 27.2252 18.9434C24.056 24.0587 23.3826 30.5736 25.9068 36.4221C26.0407 36.7323 26.1853 37.0496 26.3369 37.3563C29.1148 42.951 33.9058 47.1286 39.8248 49.1204C41.1257 49.5575 42.4512 49.8748 43.7803 50.0793L44.0094 50.1181C45.1481 50.3049 46.3009 50.3966 47.4537 50.3966H53.5243C55.6466 50.3966 57.1413 48.6022 57.0426 46.695C57.0673 46.3459 57.0179 45.9864 56.884 45.6374V45.6268H56.8805Z" fill="#95C11F"></path><path d="M14.0928 40.6875C12.6791 37.4054 11.9493 34.0069 11.8365 30.6367C11.7484 27.9821 12.2455 25.3804 13.2326 23.0114H13.2361C13.2361 23.0114 13.2396 22.9973 13.2431 22.9902L0.477869 45.1012C-0.879389 47.4491 0.816303 50.3857 3.52729 50.3857H21.0835C18.1539 47.7805 15.7426 44.516 14.0892 40.6875H14.0928Z" fill="#95C11F"></path><path d="M67.8184 8.24707H77.4214L84.5673 25.5248H84.8775L92.0234 8.24707H101.626V29.8116H96.4688V12.5339H95.7849L88.3888 29.8116H81.056L73.6599 12.5339H72.9759V29.8116H67.8184V8.24707Z" fill="#95C11F"></path><path d="M125.056 22.3552H130.245C130.245 25.3376 129.706 27.3259 128.63 28.3201C127.552 29.3142 125.493 29.8113 122.447 29.8113H112.844C109.904 29.8113 107.856 29.2719 106.706 28.1967C105.557 27.1215 104.982 25.1191 104.982 22.2001V16.0801C104.982 12.932 105.582 10.7991 106.784 9.67806C107.986 8.56053 110.172 8 113.341 8H121.918C124.756 8 126.818 8.5288 128.102 9.58641C129.512 10.7462 130.213 12.724 130.213 15.5231H125.056C125.077 14.2786 124.682 13.4114 123.875 12.9143C123.233 12.5019 122.25 12.2939 120.924 12.2939H114.307C112.587 12.2939 111.462 12.5336 110.937 13.0095C110.408 13.4854 110.144 14.5748 110.144 16.2705V21.6149C110.144 23.1696 110.443 24.2095 111.046 24.7383C111.645 25.2671 112.735 25.5315 114.31 25.5315H120.928C122.398 25.5315 123.402 25.3659 123.942 25.0345C124.707 24.6009 125.08 23.7089 125.059 22.3623V22.3552H125.056Z" fill="#95C11F"></path><path d="M133.352 8.24707H157V29.8116H151.842V12.5339H138.513V29.8116H133.355V8.24707H133.352Z" fill="#95C11F"></path><path d="M72.3985 37.2042H72.3809L70.8051 39.9504H70.0084L68.4325 37.2042H68.4149V41.2019H67.8262V36.5449H68.7392L70.3997 39.4921H70.4173L72.0813 36.5449H72.9908V41.2019H72.4021V37.2042H72.3985Z" fill="#95C11F"></path><path d="M79.3883 38.8746L79.3601 39.2378H75.0451C75.0451 39.3788 75.1227 39.5797 75.2778 39.8406C75.3659 39.9922 75.4752 40.1297 75.6021 40.2566C75.7396 40.3941 75.9229 40.5069 76.1591 40.595C76.3953 40.6832 76.6491 40.729 76.9206 40.729C77.118 40.729 77.3084 40.7043 77.4917 40.6585C77.675 40.6126 77.8231 40.5527 77.9429 40.4787C78.1721 40.3377 78.3201 40.2108 78.3942 40.0979L78.4541 40.0239H79.1627C79.1451 40.0697 79.1239 40.1156 79.0992 40.1579C79.0605 40.2249 78.9829 40.3306 78.863 40.4681C78.7326 40.6162 78.5951 40.7431 78.4471 40.8524C78.2884 40.9652 78.0769 41.0674 77.8054 41.1555C77.534 41.2472 77.2379 41.293 76.9241 41.293C76.1873 41.293 75.588 41.0674 75.1191 40.6197C74.6503 40.1685 74.4141 39.5868 74.4141 38.8711C74.4141 38.1555 74.6503 37.5738 75.1191 37.1226C75.5845 36.6748 76.1803 36.4492 76.9065 36.4492C77.6327 36.4492 78.225 36.6748 78.6938 37.1226C79.1592 37.5703 79.3954 38.1555 79.3954 38.8711H79.3883V38.8746ZM75.0275 38.6843H78.7714C78.7714 38.3071 78.6057 37.9369 78.2814 37.5703C77.9535 37.2036 77.4952 37.0238 76.903 37.0238C76.3107 37.0238 75.8524 37.2072 75.5245 37.5703C75.1932 37.9369 75.0275 38.3106 75.0275 38.6843Z" fill="#95C11F"></path><path d="M79.9609 36.5449H84.3852V37.0984H82.4639V41.2054H81.8752V37.0984H79.9609V36.5449Z" fill="#95C11F"></path><path d="M89.8375 38.8746L89.8093 39.2378H85.4943C85.4943 39.3788 85.5719 39.5797 85.727 39.8406C85.8151 39.9922 85.9244 40.1297 86.0513 40.2566C86.1888 40.3941 86.3721 40.5069 86.6083 40.595C86.8445 40.6832 87.0983 40.729 87.3698 40.729C87.5672 40.729 87.7576 40.7043 87.9409 40.6585C88.1242 40.6126 88.2723 40.5527 88.3921 40.4787C88.6213 40.3377 88.7694 40.2108 88.8434 40.0979L88.9033 40.0239H89.6119C89.5943 40.0697 89.5731 40.1156 89.5485 40.1579C89.5097 40.2249 89.4321 40.3306 89.3123 40.4681C89.1818 40.6162 89.0443 40.7431 88.8963 40.8524C88.7376 40.9652 88.5261 41.0674 88.2547 41.1555C87.9832 41.2472 87.6871 41.293 87.3733 41.293C86.6365 41.293 86.0372 41.0674 85.5684 40.6197C85.0995 40.1685 84.8633 39.5868 84.8633 38.8711C84.8633 38.1555 85.0995 37.5738 85.5684 37.1226C86.0337 36.6748 86.6295 36.4492 87.3557 36.4492C88.0819 36.4492 88.6742 36.6748 89.143 37.1226C89.6084 37.5703 89.8446 38.1555 89.8446 38.8711H89.8375V38.8746ZM85.4767 38.6843H89.2206C89.2206 38.3071 89.0549 37.9369 88.7306 37.5703C88.4027 37.2036 87.9444 37.0238 87.3522 37.0238C86.7599 37.0238 86.3016 37.2072 85.9738 37.5703C85.6424 37.9369 85.4767 38.3106 85.4767 38.6843Z" fill="#95C11F"></path><path d="M91.7773 40.6236C91.3085 40.1724 91.0723 39.5907 91.0723 38.875C91.0723 38.1594 91.3085 37.5777 91.7773 37.1265C92.2427 36.6787 92.8385 36.4531 93.5647 36.4531C94.2909 36.4531 94.8832 36.6787 95.352 37.1265C95.8174 37.5742 96.0536 38.1594 96.0536 38.875C96.0536 39.5907 95.8209 40.1759 95.352 40.6236C94.8867 41.0713 94.2909 41.297 93.5647 41.297C92.8385 41.297 92.2462 41.0713 91.7773 40.6236ZM93.5612 40.7294C94.1217 40.7294 94.5729 40.5531 94.9219 40.197C95.2674 39.841 95.4402 39.4003 95.4402 38.875C95.4402 38.3498 95.2674 37.9091 94.9219 37.553C94.5765 37.2005 94.1217 37.0242 93.5612 37.0242C93.0006 37.0242 92.5529 37.2005 92.2004 37.553C91.8514 37.9126 91.6751 38.3533 91.6751 38.875C91.6751 39.3968 91.8514 39.8375 92.2004 40.197C92.5459 40.5531 93.0006 40.7294 93.5612 40.7294Z" fill="#95C11F"></path><path d="M97.9777 40.6236C97.5124 40.1759 97.2832 39.5907 97.2832 38.875C97.2832 38.1594 97.5159 37.5742 97.9777 37.1265C98.436 36.6787 99.0283 36.4531 99.7545 36.4531C100.068 36.4531 100.371 36.499 100.653 36.5941C100.935 36.6893 101.175 36.8127 101.362 36.9678C101.542 37.1194 101.697 37.2816 101.827 37.4579C102.064 37.7822 102.183 38.0818 102.183 38.3533H101.567C101.567 38.2863 101.535 38.1841 101.468 38.0501C101.401 37.9161 101.306 37.7751 101.182 37.62C101.045 37.4543 100.854 37.3133 100.608 37.197C100.347 37.0806 100.065 37.0207 99.7545 37.0207C99.1975 37.0207 98.7462 37.197 98.4043 37.5495C98.0623 37.9056 97.8896 38.3462 97.8896 38.8715C97.8896 39.3968 98.0623 39.8375 98.4043 40.1935C98.7427 40.5496 99.1904 40.7258 99.7545 40.7258C100.065 40.7258 100.347 40.6659 100.608 40.5496C100.858 40.4368 101.048 40.2922 101.182 40.123C101.44 39.7987 101.567 39.5554 101.567 39.3933H102.183C102.194 39.5695 102.124 39.7916 101.975 40.056C101.827 40.3204 101.623 40.5602 101.362 40.7752C101.172 40.9303 100.935 41.0537 100.653 41.1489C100.368 41.2441 100.068 41.2899 99.7545 41.2899C99.0318 41.2899 98.4395 41.0643 97.9777 40.6166V40.6236Z" fill="#95C11F"></path><path d="M107.807 41.2019H107.218V37.0949H104.147V41.2019H103.559V36.5449H107.807V41.2019Z" fill="#95C11F"></path><path d="M114.205 38.8746L114.177 39.2378H109.862C109.862 39.3788 109.939 39.5797 110.094 39.8406C110.182 39.9922 110.292 40.1297 110.419 40.2566C110.556 40.3941 110.739 40.5069 110.976 40.595C111.212 40.6832 111.466 40.729 111.737 40.729C111.934 40.729 112.125 40.7043 112.308 40.6585C112.491 40.6126 112.639 40.5527 112.759 40.4787C112.988 40.3377 113.137 40.2108 113.211 40.0979L113.271 40.0239H113.979C113.961 40.0697 113.94 40.1156 113.916 40.1579C113.877 40.2249 113.799 40.3306 113.679 40.4681C113.549 40.6162 113.412 40.7431 113.263 40.8524C113.105 40.9652 112.893 41.0674 112.622 41.1555C112.35 41.2472 112.054 41.293 111.741 41.293C111.004 41.293 110.404 41.0674 109.936 40.6197C109.467 40.1685 109.23 39.5868 109.23 38.8711C109.23 38.1555 109.467 37.5738 109.936 37.1226C110.401 36.6748 110.997 36.4492 111.723 36.4492C112.449 36.4492 113.041 36.6748 113.51 37.1226C113.976 37.5703 114.212 38.1555 114.212 38.8711H114.205V38.8746ZM109.844 38.6843H113.588C113.588 38.3071 113.422 37.9369 113.098 37.5703C112.77 37.2036 112.312 37.0238 111.719 37.0238C111.127 37.0238 110.669 37.2072 110.341 37.5703C110.01 37.9369 109.844 38.3106 109.844 38.6843Z" fill="#95C11F"></path><path d="M119.847 42.3899V41.2019H115.631V36.5449H116.22V40.6519H119.128V36.5449H119.717V40.6519H120.436V42.3899H119.847Z" fill="#95C11F"></path><path d="M125.775 41.2019H125.187V37.0949H122.116V41.2019H121.527V36.5449H125.775V41.2019Z" fill="#95C11F"></path><path d="M129.903 36.4533C130.601 36.4533 131.187 36.6789 131.652 37.1301C132.114 37.5849 132.343 38.1666 132.343 38.8752C132.343 39.5838 132.114 40.169 131.652 40.6202C131.187 41.0715 130.601 41.2971 129.903 41.2971C129.093 41.3077 128.469 41.0221 128.028 40.4334L128.01 40.4052H127.972V43.1056H127.383V36.5449H127.972V37.3487H128.01L128.028 37.317C128.479 36.7318 129.103 36.4462 129.903 36.4533ZM131.215 40.1972C131.56 39.8411 131.733 39.4004 131.733 38.8752C131.733 38.3499 131.56 37.9092 131.215 37.5532C130.869 37.2006 130.415 37.0244 129.854 37.0244C129.294 37.0244 128.853 37.1971 128.5 37.5391C128.148 37.8845 127.972 38.3323 127.972 38.8752C127.972 39.4181 128.148 39.8658 128.5 40.2113C128.846 40.5568 129.297 40.7295 129.854 40.7295C130.411 40.7295 130.866 40.5532 131.215 40.1972Z" fill="#95C11F"></path><path d="M138.111 41.2019H137.529V37.176H137.511L134.593 41.2019H133.768V36.5449H134.349V40.5779H134.367L137.286 36.5449H138.111V41.2019Z" fill="#95C11F"></path><path d="M142.197 35.7972C141.813 35.7972 141.478 35.8642 141.189 35.9981C140.899 36.1321 140.677 36.3119 140.522 36.541C140.237 36.9641 140.096 37.4435 140.096 37.9758H140.124C140.138 37.9441 140.156 37.9053 140.184 37.856C140.205 37.8172 140.272 37.7291 140.385 37.5951C140.498 37.4576 140.621 37.3448 140.751 37.2567C140.899 37.1509 141.097 37.0628 141.34 36.9887C141.59 36.9112 141.869 36.8724 142.176 36.8724C142.842 36.8724 143.392 37.0804 143.822 37.4929C144.245 37.9089 144.457 38.4377 144.457 39.0828C144.457 39.7279 144.238 40.2673 143.797 40.6798C143.357 41.0923 142.775 41.2967 142.052 41.2967C141.33 41.2967 140.684 41.0323 140.226 40.507C139.764 39.9818 139.535 39.2943 139.535 38.4482V38.0499C139.535 37.2179 139.757 36.5375 140.198 36.0122C140.639 35.4905 141.27 35.2296 142.102 35.2296C142.934 35.2296 143.353 35.004 143.353 34.5527H143.959C143.959 34.9194 143.825 35.2225 143.554 35.4517C143.283 35.6844 142.828 35.8007 142.193 35.8007L142.197 35.7972ZM143.367 40.2567C143.688 39.943 143.85 39.5517 143.85 39.0828C143.85 38.6139 143.688 38.2261 143.367 37.9089C143.039 37.5951 142.606 37.44 142.063 37.44C141.562 37.44 141.139 37.5986 140.797 37.9124C140.452 38.2297 140.279 38.621 140.279 39.0828C140.279 39.5446 140.452 39.9465 140.797 40.2567C141.139 40.5705 141.562 40.7291 142.063 40.7291C142.606 40.7291 143.043 40.5705 143.367 40.2567Z" fill="#95C11F"></path><path d="M146.346 40.6236C145.877 40.1724 145.641 39.5907 145.641 38.875C145.641 38.1594 145.877 37.5777 146.346 37.1265C146.811 36.6787 147.407 36.4531 148.133 36.4531C148.859 36.4531 149.452 36.6787 149.92 37.1265C150.386 37.5742 150.622 38.1594 150.622 38.875C150.622 39.5907 150.389 40.1759 149.92 40.6236C149.455 41.0713 148.859 41.297 148.133 41.297C147.407 41.297 146.815 41.0713 146.346 40.6236ZM148.13 40.7294C148.69 40.7294 149.141 40.5531 149.49 40.197C149.836 39.841 150.009 39.4003 150.009 38.875C150.009 38.3498 149.836 37.9091 149.49 37.553C149.145 37.2005 148.69 37.0242 148.13 37.0242C147.569 37.0242 147.121 37.2005 146.769 37.553C146.42 37.9126 146.243 38.3533 146.243 38.875C146.243 39.3968 146.42 39.8375 146.769 40.197C147.114 40.5531 147.569 40.7294 148.13 40.7294Z" fill="#95C11F"></path><path d="M154.56 36.4533C155.258 36.4533 155.843 36.6789 156.308 37.1301C156.77 37.5849 156.999 38.1666 156.999 38.8752C156.999 39.5838 156.77 40.169 156.308 40.6202C155.843 41.0715 155.258 41.2971 154.56 41.2971C153.749 41.3077 153.125 41.0221 152.684 40.4334L152.667 40.4052H152.628V43.1056H152.039V36.5449H152.628V37.3487H152.667L152.684 37.317C153.135 36.7318 153.759 36.4462 154.56 36.4533ZM155.871 40.1972C156.217 39.8411 156.389 39.4004 156.389 38.8752C156.389 38.3499 156.217 37.9092 155.871 37.5532C155.526 37.2006 155.071 37.0244 154.51 37.0244C153.95 37.0244 153.509 37.1971 153.157 37.5391C152.804 37.8845 152.628 38.3323 152.628 38.8752C152.628 39.4181 152.804 39.8658 153.157 40.2113C153.502 40.5568 153.953 40.7295 154.51 40.7295C155.067 40.7295 155.522 40.5532 155.871 40.1972Z" fill="#95C11F"></path></svg> 