<?xml version="1.0" encoding="UTF-8"?>
<svg id="_Слой_1" data-name="Слой 1" xmlns="http://www.w3.org/2000/svg" xmlns:xlink="http://www.w3.org/1999/xlink" viewBox="0 0 255.12 121.89">
  <defs>
    <style>
      .cls-1 {
        letter-spacing: -.01em;
      }

      .cls-2 {
        letter-spacing: -.01em;
      }

      .cls-3 {
        fill: #fff;
      }

      .cls-4 {
        fill: #b01738;
      }

      .cls-5 {
        letter-spacing: -.03em;
      }

      .cls-6 {
        letter-spacing: .03em;
      }

      .cls-7 {
        letter-spacing: -.04em;
      }

      .cls-8 {
        letter-spacing: -.1em;
      }

      .cls-9 {
        letter-spacing: -.09em;
      }

      .cls-10 {
        fill: url(#_Безымянный_градиент_2);
      }

      .cls-11 {
        letter-spacing: -.07em;
      }

      .cls-12 {
        font-family: GothamPro-Medium, 'Gotham Pro';
        font-size: 8.08px;
        font-weight: 500;
      }

      .cls-12, .cls-13, .cls-14 {
        fill: #4b4b4a;
      }

      .cls-13 {
        font-family: GothamPro-Bold, 'Gotham Pro';
        font-size: 55.33px;
        font-weight: 700;
      }

      .cls-15 {
        fill: url(#_Безымянный_градиент_2-2);
      }

      .cls-16 {
        letter-spacing: .03em;
      }
    </style>
    <radialGradient id="_Безымянный_градиент_2" data-name="Безымянный градиент 2" cx="48.67" cy="63.12" fx="48.67" fy="63.12" r="10.94" gradientUnits="userSpaceOnUse">
      <stop offset=".18" stop-color="#8c1913"/>
      <stop offset=".68" stop-color="#8c1913" stop-opacity="0"/>
    </radialGradient>
    <radialGradient id="_Безымянный_градиент_2-2" data-name="Безымянный градиент 2" cx="79.44" cy="63.39" fx="79.44" fy="63.39" r="13.64" xlink:href="#_Безымянный_градиент_2"/>
  </defs>
  <g>
    <text class="cls-13" transform="translate(98.67 76.66)"><tspan x="0" y="0">В</tspan><tspan class="cls-5" x="39.95" y="0">С</tspan><tspan x="79.12" y="0">А</tspan></text>
    <text class="cls-12" transform="translate(103.25 91.33)"><tspan class="cls-6" x="0" y="0">В</tspan><tspan class="cls-1" x="6.04" y="0">О</tspan><tspan class="cls-6" x="12.78" y="0">Л</tspan><tspan class="cls-9" x="19.17" y="0">Г</tspan><tspan class="cls-2" x="23.2" y="0">А</tspan><tspan class="cls-6" x="29.46" y="0">СВЯЗЬ</tspan><tspan class="cls-1" x="58.78" y="0">А</tspan><tspan class="cls-7" x="65.05" y="0">В</tspan><tspan class="cls-11" x="70.52" y="0">Т</tspan><tspan class="cls-1" x="75.23" y="0">ОМ</tspan><tspan class="cls-8" x="88.87" y="0">А</tspan><tspan class="cls-1" x="94.41" y="0">ТИК</tspan><tspan class="cls-16" x="111.37" y="0">А</tspan></text>
  </g>
  <g>
    <g>
      <path class="cls-3" d="M64.28,93.43c-.63,0-1.25-.16-1.8-.47l-25.11-14.13c-1.14-.64-1.86-1.85-1.87-3.16l-.32-28.81c-.01-1.31.68-2.53,1.8-3.2l24.8-14.68c.57-.34,1.21-.51,1.87-.51s1.25.16,1.8.47l25.11,14.13c1.14.64,1.86,1.85,1.87,3.16l.32,28.81c.01,1.31-.68,2.54-1.8,3.2l-24.8,14.68c-.57.34-1.21.51-1.87.51h0Z"/>
      <path class="cls-14" d="M63.65,30.03c.36,0,.72.09,1.03.27l25.11,14.13c.65.37,1.07,1.06,1.07,1.81l.32,28.81c0,.75-.39,1.45-1.03,1.84l-24.8,14.68c-.32.19-.7.29-1.07.29s-.72-.09-1.03-.27l-25.11-14.13c-.65-.37-1.07-1.06-1.07-1.81l-.32-28.81c0-.75.39-1.45,1.03-1.84l24.8-14.68c.32-.19.7-.29,1.07-.29M63.65,26.89c-.92,0-1.85.24-2.67.73l-24.8,14.68c-1.61.95-2.59,2.7-2.57,4.57l.32,28.81c.02,1.87,1.04,3.59,2.67,4.51l25.11,14.13c.8.45,1.69.67,2.57.67s1.85-.24,2.67-.73l24.8-14.68c1.61-.95,2.59-2.7,2.57-4.57l-.32-28.81c-.02-1.87-1.04-3.59-2.67-4.51l-25.11-14.13c-.8-.45-1.69-.67-2.57-.67h0Z"/>
    </g>
    <g>
      <path class="cls-4" d="M88.6,58.51h-6.3s-3.73-.01-3.73-.01v-1.32h-2.9v1.42h-.19v.02c-1.67,0-3.35,0-5.02-.01-.01,0-.03,0-.04,0h-12.83s-.08.01-.12.01c-1.62,0-3.24,0-4.86,0v-1.43h-3.09v1.32h-4.35v-5.03c0-2.4,1.51-4.44,3.63-5.24.51-.4,1.07-.8,1.71-1.19,2.81-1.7,5.71-3.27,8.47-5.04,2.94-1.9,5.82-1.93,8.81-.21,2.92,1.67,5.89,3.26,8.79,4.97,4.73,2.78,6.14,2.71,10.87-.82-.16-.18-.28-.4-.48-.51-6.56-3.73-13.13-7.46-19.71-11.16-2.54-1.43-5.11-1.12-7.51.27-5.41,3.12-10.78,6.29-16.11,9.54-2.15,1.31-4.01,3.08-4.06,5.82-.05,3.34-.07,5.93-.07,8.6h-.02v9.42h10.33c1.67,1.13,10.71,7.12,14.16,7.12s12.57-5.99,14.29-7.12h4.03c-.02,2.33-1.46,4.32-3.5,5.15-.09.05-.17.11-.27.16-3.77,2.01-7.42,4.23-11.05,6.49-2.27,1.41-4.43,1.5-6.72.18-3.2-1.84-6.56-3.45-9.6-5.52-3.9-2.65-7.44-2.35-11.21.61,7,3.98,13.78,7.81,20.54,11.69,2.45,1.41,4.88,1.34,7.25-.04,5.82-3.38,11.62-6.8,17.41-10.25,1.91-1.14,3.41-2.69,3.41-5.08,0-4.25.09-8.38.04-12.79Z"/>
      <polygon class="cls-4" points="70.55 57.03 70.55 53.42 57.57 53.42 57.57 53.41 57.54 53.41 57.54 57.03 58.9 57.03 58.9 57.04 69.19 57.04 69.19 57.03 70.55 57.03"/>
      <path class="cls-4" d="M60.17,50.02v2.43h7.75v-2.43h-2.87v-1.98h4.53c.42,0,.75-.34.75-.75v-1.41c0-.42-.34-.75-.75-.75h-4.53v-.6h-2.01v.6h-4.53c-.42,0-.75.34-.75.75v1.41c0,.42.34.75.75.75h4.53v1.98h-2.87Z"/>
    </g>
    <path class="cls-10" d="M49.53,58.5h-4.35v-5.03c0-2.4,1.51-4.44,3.63-5.24.51-.41,1.07-.8,1.71-1.19,2.81-1.7,5.71-3.27,8.47-5.04,2.94-1.9,5.82-1.93,8.81-.21,2.92,1.67,5.89,3.26,8.79,4.97,4.73,2.78,6.14,2.71,10.87-.82-.16-.18-.28-.4-.48-.51-6.56-3.73-13.13-7.46-19.71-11.16-2.54-1.43-5.11-1.12-7.51.27-5.41,3.12-10.78,6.29-16.11,9.54-2.15,1.31-4.01,3.08-4.06,5.82-.05,3.34-.07,5.93-.07,8.6h-.02v9.42h10.03v-9.42Z"/>
    <path class="cls-15" d="M82.44,58.51h-.14s-3.73-.01-3.73-.01v9.42h3.73c-.02,2.33-1.46,4.32-3.5,5.15-.09.05-.17.11-.27.16-3.77,2.01-7.42,4.23-11.05,6.49-2.27,1.41-4.43,1.5-6.72.18-3.2-1.84-6.56-3.45-9.6-5.52-3.9-2.65-7.44-2.35-11.21.61,7,3.98,13.78,7.81,20.54,11.69,2.45,1.41,4.88,1.34,7.25-.04,5.82-3.38,11.62-6.8,17.41-10.25,1.91-1.14,3.41-2.69,3.41-5.08,0-4.25.09-8.38.04-12.79h-6.16Z"/>
  </g>
</svg>