<svg width="240" height="53" viewBox="0 0 240 53" fill="none" xmlns="http://www.w3.org/2000/svg">
<g clip-path="url(#clip0_201_10)">
<path d="M158.87 15.8261C158.87 14.7391 158.348 14 157.304 14H155.043V17.8696H157.304C158.043 17.8696 158.87 17.2609 158.87 15.8261Z" fill="#FFA800"/>
<path d="M157.391 20.5652H155.043V25.1739H157.391C158.739 25.1739 159.522 24.3913 159.522 22.8696C159.522 21.3043 158.478 20.5652 157.391 20.5652Z" fill="#FFA800"/>
<path d="M198.304 9.17402C196.13 9.17402 183.565 9.17402 183.565 9.17402H182.565H181.435H180.435H177.565C177.565 9.17402 176.783 9.13054 176.174 9.43488C175.565 9.73923 175.087 10.4784 175.087 10.4784L172 14.8697V11.3044C172 11.3044 172.044 10.4784 171.391 9.82619C170.739 9.17402 169.87 9.17402 169.87 9.17402H165.783H164.783C164.783 9.17402 164.391 9.17402 163.652 9.17402C162.565 9.17402 160.739 9.17402 158.261 9.17402H151.087H148.957V11.3044V27.8697V30.0001H151.087H158.391H163.696H164.478H166.565H167.783C167.783 30.0001 169.652 30.0436 170.174 29.7827C170.565 29.5653 170.87 29.1305 170.87 29.1305L174.261 24.3045V27.8697C174.261 27.8697 174.217 28.7392 174.957 29.4784C175.522 30.0436 176.391 30.0001 176.391 30.0001H180.478H181.478H182.609H183.609H187.696H189.826V27.8697V16.8262H192.13V27.8697V30.0001H194.261H198.348H200.478V27.8697V11.3044C200.435 11.3044 200.478 9.17402 198.304 9.17402ZM158.391 27.8697H151.087V11.3044H158.261C160.783 11.3044 162.652 12.2175 162.652 15.3914C162.652 17.3045 161.783 18.3479 160.696 18.7827C162.087 19.2175 163.304 20.174 163.304 23.0001C163.348 26.2175 162.087 27.8697 158.391 27.8697ZM180.435 27.8697H176.348V17.5653L169.13 27.8697H166.391H165.826V21.174V11.3044H169.913V21.6523L177.13 11.3044H180.435V27.8697ZM198.304 27.8697H194.217V14.6958H187.652V27.8697H183.565V11.3044H198.304V27.8697Z" fill="#FFA800"/>
<path d="M129.739 36.9565H127.783V42.5217H129.739C131.217 42.5217 132.435 42.087 132.435 39.6522C132.391 37.4783 131.435 36.9565 129.739 36.9565Z" fill="#FFA800"/>
<path d="M128.783 31.6088H137C141.087 30.6523 145.087 29.7392 148.913 28.7827V26.9131C142.478 28.4784 135.783 30.0436 128.783 31.6088Z" fill="#FFA800"/>
<path d="M200.435 13V14.913C214.348 10.7826 225 7.21739 231.87 4.86957C220.217 16.0435 212.652 27.1304 208.13 35C203.696 42.7391 201.435 48.6087 200.565 51.087H30.2609C39.087 49.913 47.6522 48.6087 56.0435 47.3044V45.4783C38.3043 48.2609 19.5652 50.8261 0 52.913H201.87C201.87 52.913 210.087 25.1739 240 0C240 0 225.783 5.43478 200.435 13Z" fill="#FFA800"/>
<path d="M198.957 31.6957H187.913H186.913H185.783H184.783C184.783 31.6957 182.652 31.6957 181.478 31.6957C180.261 31.6957 179.739 32.6087 179.739 32.6087L176.348 37.3913V33.8261C176.348 33.8261 176.391 31.6957 174.217 31.6957C172.044 31.6957 170.13 31.6957 170.13 31.6957H169.13H168H167C167 31.6957 165.217 31.6957 162.913 31.6957C160.609 31.6957 160.783 33.8261 160.783 33.8261V37.9565H158.696V33.8261C158.696 33.8261 158.87 31.6957 156.565 31.6957C154.304 31.6957 152.478 31.6957 152.478 31.6957H152.174H150.391H150.043H139H136.87V31.7391C134.913 31.7391 132.565 31.6957 129.739 31.6957H123.739H123.391H121.609H121.261H110.217H108.13H108.087H106.174C106.174 31.6957 103 31.6957 101.261 31.6957C99.5652 31.6957 99.2174 33.1739 99.2174 33.1739L97.3044 39.2609L95.3913 33.1739C95.3913 33.1739 95.1304 31.6957 93.3478 31.6957C91.6087 31.6957 88.4348 31.6957 88.4348 31.6957H86.4783L86.3044 33.6522L86.1739 35.1739C84.7391 31.4348 80.1304 31.4348 78.1739 31.4348C77.1304 31.4348 76.1739 31.5217 75.3044 31.6522H72.7391H70.6087C70.6087 31.6522 68.5218 31.6522 67.3044 31.6522C66.087 31.6522 65.5652 32.5652 65.5652 32.5652L62.2609 37.3913V33.8261C62.2609 33.8261 62.5652 31.6957 60.1304 31.6957C57.6957 31.6957 56.0435 31.6957 56.0435 31.6957H53.9131V33.8261V50.3913V52.5217H56.0435H59.3478H60.4348L61.087 51.6087L64.4783 46.7826V50.3478V52.4783H66.6087H70.6957H72.8261V51.8696C73.8696 52.2174 75.9131 52.6957 78.0435 52.6957C79.7391 52.6957 82.7391 52.6957 84.9131 51.2609L84.8261 52.4348H87.1304H91.3044H93.3913L93.4348 50.8696L93.4783 50.9565L93.9565 52.4348H95.5218H99.2609H100.826L101.304 50.9565L101.348 50.8696L101.391 52.4348H103.478H107.652H108.174H109.957H110.304H121.348H121.696H123.478H123.826H127.913H130.043V50.3043V47.6522C132.391 47.6522 135.217 47.2609 137 45.2609V50.2609V52.3913H139.13H150.174H150.522H152.304H152.652H156.739H158.87V50.2609V45.1739H161V50.2609V52.3913H163.13H167.217H168.217H169.348H170.348H173.652H174.739L175.391 51.4783L178.783 46.6522V50.2174V52.3478H180.913H185H186H187.13H188.13H199.174H201.304V50.2174V47.1304V45H200.087V43.2609V40.1739V38.8696H201.304V36.7391V33.6522V31.5217H198.957V31.6957ZM70.6957 50.3913H66.6087V40.0435L59.3478 50.3913H56.0435V33.8261H60.1304V44.1739L67.3913 33.8261H70.6957V50.3913ZM72.8261 40.2174L73.4348 40V40.4783V43.2609V44.2174L72.8261 44V40.2174ZM85.2174 47.5217C84.4348 50.0435 81.8261 50.6087 78 50.6087C75.7826 50.6087 73.6522 50 73.1304 49.7391L73.6087 46.5217C74.6087 46.8696 76.2174 47.3478 78 47.3478C80.087 47.3478 81.3044 47.1304 81.3044 45.4348C81.3044 43.3478 79.5218 43.2609 77.3044 43.2609H75.5218V40.4783H78.0435C79.6957 40.4783 80.5218 39.7826 80.5218 38.5217C80.5218 37.2609 79.8261 36.8261 78.0435 36.8261C76.5652 36.8261 75 37.1739 73.9131 37.5217L73.3478 34.3478C74.2174 34 76.0435 33.5217 78.2174 33.5217C82.4348 33.5217 84.4783 34.3913 84.4783 37.6522C84.4783 39.7391 83.5652 40.7391 82.0435 41.2174C83.9131 41.7391 85.1304 42.6087 85.3478 45L85.2174 47.5217ZM103.391 50.3913L103.087 38.5652H103L99.2174 50.3913H95.4783L91.6957 38.5652H91.6087L91.3044 50.3913H87.1304L87.3478 47.9565C87.5218 47.3043 87.6087 46.5652 87.6087 45.7391C87.6087 45.4783 87.6087 45.2609 87.5652 45.0435L88.4783 33.8261H93.3913L97.2609 46.3043H97.3478L101.261 33.8261H106.174L107.565 50.3913H103.391ZM121.261 36.913H114.304V40.3478H120V43.4348H114.261V47.3043H121.217V50.3913H110.174V33.8261H121.217V36.913H121.261ZM129.739 45.6522H127.783V50.4348H123.696V33.8261H129.696C134.522 33.8261 136.478 35.3043 136.478 39.6522C136.522 44 134.522 45.6522 129.739 45.6522ZM150.043 36.913H143.087V40.3478H148.826V43.4348H143.043V47.3043H150V50.3913H138.957V38.0435V33.7826H143.565H150V36.913H150.043ZM167.044 50.3913H162.957V43.1739H156.565V50.3913H152.478V33.8261H156.565V40.087H162.957V33.8261H167.044V50.3913ZM184.783 50.3913H180.696V40.0435L173.478 50.3913H170.174V33.8261H174.261V44.1739L181.522 33.8261H184.826V50.3913H184.783ZM198.957 36.913H192V40.3478H197.739V43.4348H192V47.3043H198.957V50.3913H187.913V33.8261H198.957V36.913Z" fill="#FFA800"/>
</g>
<defs>
<clipPath id="clip0_201_10">
<rect width="240" height="53" fill="white"/>
</clipPath>
</defs>
</svg>
