<?xml version="1.0" encoding="utf-8"?>
<!-- Generator: Adobe Illustrator 24.0.1, SVG Export Plug-In . SVG Version: 6.00 Build 0)  -->
<svg version="1.1" id="Layer_1" xmlns="http://www.w3.org/2000/svg" xmlns:xlink="http://www.w3.org/1999/xlink" x="0px" y="0px"
	 viewBox="0 0 2955.53 1060.09" style="enable-background:new 0 0 2955.53 1060.09;" xml:space="preserve">
<style type="text/css">
	.st0{fill:#F25511;}
	.st1{fill:#4D4D4D;}
</style>
<g>
	<g>
		<path class="st0" d="M867.05,246.19c68.37,93.27,68.53,93.27,111.02,182.9c0.06,0.5,0.22,0.99,0.33,1.41
			c9.04,6.33,9.87,6.88,14.04,11.97c-0.77-4.06-1.49-8.04-2.29-12.03c-0.88-1.58-1.55-2.24-3.87-4.59v-0.5
			c-1.08-0.72-2.9-6.36-4.09-12.03c-0.55-1.85-1.16-4.29-1.49-6.19c-5.28-16.42-20.04-59.93-22.17-62.28l-12.19-10.53h-0.05
			c-2.85-2.32-6.69-8.96-8.82-15.32c-6.91-19.05-6.91-19.05-14.43-37.38C898.65,263.8,898.65,263.8,867.05,246.19z"/>
		<path class="st0" d="M142.51,828.61c24,13.99,24,13.99,52.36,27.98c-2.54-5.28-3.29-6.91-5.69-12.25
			c-13.63-6.08-18.66-8.96-31.85-15.37c-5.42-2.46-12.55-7.66-15.87-15.87c-35.55-107.37-34.78-105.77-53.55-238.91v-0.44
			c-0.44-8.85,2.96-15.43,7.68-15.37c12.36,1,15.07,1.33,28.45,2.13c5.89,0.33,11.06,8.18,11.53,17.69
			c2.35,34.06,2.99,34.33,6.36,67.48c47.03,7.41,43.62,6.69,99.99,13.05C152.6,545.67,152.6,545.67,94.99,449.52
			c-0.05-0.47-0.05-0.47-0.22-0.94c-25.74,5.14-23,4.15-42.43,8.93c-0.36,4.62-0.36,7.63-0.91,12.74c10.54-2.4,7.85-1.33,20.35-3.59
			c3.73-0.83,6.44,5.25,5.94,13.91c3.68,139.99,3.68,136.98,29.5,262.54c2.1,6.63,0.75,10.62-3.32,8.13
			c-9.78-5.81-9.78-5.81-18.66-11.78h-0.17c-3.01-2.24-10.45-11.56-12.58-17.91c-6.3-21.04-6.3-21.04-12.16-43.54
			c-13.41-9.04-10.75-7.02-20.57-15.73C65.41,742.06,93.58,781.78,142.51,828.61z"/>
		<path class="st0" d="M718.6,962.41c12.63-3.1,22.94-20.21,28.2-29.05c-35.44,12.19-35.44,12.19-74.23,22.75
			C696.32,961.83,708.73,962.55,718.6,962.41z"/>
		<path class="st0" d="M482.4,1015.02l0.15-0.12c-0.1,0-0.21-0.01-0.32-0.02L482.4,1015.02z"/>
		<path class="st0" d="M634.7,964.24c0-0.14,0-0.14-0.55-0.19c-17.83,2.46-29.03,4.06-38.76,5.14c-0.97,2.38-0.8,1.88-1.35,2.82
			c7.08-0.69,11.25,2.9,10.48,5.75c-12.14,24.85-12.99,26.73-22.06,34.14c5.92-0.94,11.81-1.99,17.66-3.1
			c3.01-1.8,4.67-3.37,10.12-9.12v-0.08c-0.08-0.22,0.36-0.53,1.19-0.89c2.21-1.52,7.74-3.4,13.41-4.42
			c1.35-0.33,2.85-0.61,3.82-0.61c9.9-2.16,10.78-2.43,16.59-3.79c12.25-2.9,15.59-1.58,8.51,5.58
			c22.75-7.02,44.84-15.65,66.13-25.88C690.4,974.63,687.44,974.05,634.7,964.24z"/>
		<path class="st0" d="M355.51,881.83c-1.13-4.4,1.58-7.68,5.86-9.07c2.54-1.24,6.03-1.85,9.87-1.41
			c22.95,2.68,22.95,2.68,46.22,4.84c9.45,0.66,18.11,6.74,18.71,13.32c2.4,21.9,2.4,21.9,4.76,41.22
			c46.97,2.35,46.97,2.35,94.71,2.1c-103.45-66.32-104.14-67.62-218.28-163.16c-0.72-0.66-1.6-1.66-2.35-2.65
			c-41.94-5.53-41.94-5.53-80.78-12.47c1.13,5.61,2.18,9.7,3.26,15.01c29.66,5.36,29.66,5.36,61.79,10.48
			c9.09,1.13,17.61,9.21,19.05,17.78c23.55,112.76,23.17,110.08,49.21,175.6c1.13,2.57-3.1,3.46-10.06,1.85
			c-18.55-4.7-18.55-4.7-35.99-9.79l-0.39-0.16c-6.36-2.05-13.1-5.83-14.98-8.51c-7.08-10.31-7.08-10.31-14.52-22.37
			c-42.76-15.68-42.76-15.68-80.31-33.34c52.42,41.16,114.2,89.35,188.81,101.68c-11.25-16.12-19.9-35.16-26.82-54.88
			C364.3,922.3,364.44,919.56,355.51,881.83z"/>
		<path class="st0" d="M299.37,924.6c5.92,2.24,11.89,6.52,13.6,10.09c6.69,12.88,6.69,12.88,13.02,23.91
			c6.41,1.77,6.41,1.77,12.72,3.45c-11.2-22.17-11.2-22.17-23.11-50.87c-0.64-0.5-1.41-0.94-2.08-1.44
			c-100.82-85.4-100.82-85.4-186.91-185.39c13.11,46.94,13.11,46.94,28.09,88.27c17.61,8.16,17.61,8.16,37.32,16.39
			c5.94,2.16,13.11,9.23,15.29,15.2c6.69,16.15,6.69,16.15,13.16,30.69c2.71,5.28-0.14,7.35-6.17,4.62
			c-0.05,0.05-0.05,0.05-0.17,0.11c-73.54-41.94-76.61-43.68-115.45-82.49c10.62,18.27,26.71,35.77,31.93,40.64
			c64.58,44.65,64.58,44.65,161.72,83.79C294.47,922.16,296.99,923.32,299.37,924.6z"/>
		<path class="st0" d="M409.7,976.43c5.72,13.85,7.38,13.85,12.69,24.22c22.61,2.74,22.61,2.74,45.14,4.62
			c7.13,0.44,13.3,1.96,13.24,3.4c1.24,3.4,1.24,3.4,2.07,6l-0.29,0.24c9.43,0.52,20.03,1.01,32.61,1.45
			c15.15,0.64,30.41,0.8,45.56-0.78l0.44-0.72c-15.15-0.33-39.72-5.44-55.48-8.57C481.8,1001.5,461.34,994.84,409.7,976.43z"/>
		<path class="st0" d="M923.48,424.25l-0.05-0.44c-4.23-29.91-4.89-29.91-10.12-58.72c-3.01-1.08-7.36-2.18-10.48-3.23
			c8.85,53.99,9.62,51.97,14.87,108.73c41.77,89.13,43.46,91.51,60.1,160.12c6.19-46.64,6.19-46.64,8.82-94.88
			c-6.86,0.33-6.86,0.33-15.35,0.61c-2.71,0.44-4.89-6.11-4.89-13.41v-0.44c-0.39-19.19-0.39-19.19-1.22-38.45
			c-0.44-7.8,1.27-13.55,3.9-13.02h0.39c20.79,6.91,22.61,7.49,28.25,12.3c-0.52-5.72-1.13-11.5-1.8-17.11
			c-15.98-11.31-14.6-11.14-62.61-24.91C928.9,440.45,924.45,432.77,923.48,424.25z"/>
		<path class="st0" d="M856.19,185.34c6.25,8.93,13.16,22.03,18.27,30.66c2.96,5.09,1.74,6.72-2.38,3.95l-0.08,0.06
			c-86.17-41.94-83.1-41.16-205.82-73.12c-8.18-1.3-17.22-7.49-18.88-12.91l0.11-0.14c-4.81-17.47-3.84-16.81-8.27-31.82
			c-5.39-0.86-8.4-1.55-13.3-2.32c6.64,23.86,6.28,21.45,12.69,50.45c2.63,1.8,5.36,4.53,7.47,5.97
			c106.68,88.02,106.68,88.02,202.88,192.46c-9.4-47.35-7.74-42.55-18.88-85.4c-21.18-7.8-27.73-10.59-52.31-19.19
			c-7.8-1.93-15.59-9.45-17.5-16.86l0.11-0.11c-4.62-16.97-4.62-16.97-9.45-32.81c-0.44-1.47-0.61-2.77-0.28-3.7
			c-1.19-5.53,3.09-7.99,10.01-6.03c92.94,36.77,96.95,38.37,150.14,75.11c5,3.43,9.81,6.94,14.54,10.67
			c-20.23-33.48-44.4-61.84-69.69-86.83L856.19,185.34z"/>
		<path class="st0" d="M791.97,899.49c-43.73-27.64-43.73-27.64-114.15-82.63c-6.8,39.56-6.8,39.56-13.77,73.7
			c28.86-5.28,28.86-5.28,56.37-11.14c7.68-1.83,12.61,1.33,10.7,6.97c-5.61,14.93-5.61,14.93-11.08,28.39
			c-2.05,4.67-9.4,9.81-16.86,11.78l-0.55,0.19c-132.31,21.31-128.25,21.67-270.64,20.13c-8.6-0.94-16.34-5.39-17.47-9.95
			c0.08-0.14,0.08-0.14,0.08-0.17c-3.62-18.05-3.62-18.05-7.08-38.51c-5.86-0.72-12.28-1.33-17.69-1.99
			c6.91,35.25,7.91,35.25,14.73,62.84c88.71,37.04,90.15,37.35,161.11,51.2c4.64-9.54,4.64-9.54,9.26-24.27
			c-27.31,2.05-27.31,2.05-55.54,3.1c-7.41,0.03-13.88-2.07-13.88-4.89v-0.14c-0.39-7.3-0.39-7.3-0.28-15.54
			c0.06-3.7,6.97-6.86,15.26-6.94h1.3c132.45-13.6,132.45-13.6,243.99-45.75c0.39-0.25,0.39-0.25,0.83-0.39
			c5.81-2.35,8.79-1.3,6.25,2.52c-8.27,11.75-8.27,11.75-16.45,22.11c4.87-2.13,4.87-2.13,9.65-4.42
			c13.3-16.53,13.3-16.53,26.07-36.02C791.97,899.58,791.97,899.58,791.97,899.49z"/>
		<path class="st0" d="M920.93,518.88c-0.91,47.41-0.91,47.41-4.23,94.85c14.76-2.54,14.76-2.54,27.73-5.42
			c3.68-1.19,5.69,4.73,4.67,12.8c-3.15,21.51-3.15,21.51-6.83,42.68c-3.4,17.55-13.22,18.3-28.15,22.97
			c-20.46,6.44-35.11,10.28-49.62,14.13c-30.66,8.18-60.35,13.24-143.87,26.57c-9.56,0.97-16.86-6.08-15.81-16.09
			c0.06-0.28,0.06-0.28-0.05-0.41c2.9-36.55,2.9-36.55,5.09-74.42c-5.31,0.3-12.11,0.97-17.39,1.19
			c-4.45,71.43-3.84,71.79-10.2,136.7c75.19,65.74,76.49,64.8,122.72,101.98c17.17-37.87,17.17-37.87,32.81-82.66
			c-23.22,7.63-23.22,7.63-48.46,14.93c-7.52,1.91-11.97-2.63-10.15-10.25c-0.05-0.03-0.05-0.03,0.17-0.39
			c4.2-19.05,4.2-19.05,8.16-39.09c1.55-8.49,9.12-16.75,16.81-18.27c0.44-0.17,0.44-0.17,0.94-0.28c1.08-0.53,2.02-0.8,2.96-0.94
			c97.56-28.03,97.56-28.03,152.07-56.34c0.58-0.55,1.08-0.61,1.46-0.3c3.4-6.83,6.36-13.91,9.12-21.15
			c-0.05-0.3-0.11-0.64-0.11-0.99C957.2,599.6,957.2,599.6,920.93,518.88z"/>
		<path class="st0" d="M811.79,767.63c-1.22,5-1.22,5-2.4,10.15c24.69-7.08,24.69-7.08,46.86-14.04c5.8-2.18,8.65,2.27,6.74,9.26
			c-35.83,87.91-39.39,96.48-71.24,141.79c19.21-14.98,32.07-31.46,43.4-50.07c7.36-11.72,16.97-29.08,21.98-36.02
			c2.07-2.9,5.47-6.86,7.88-8.16c10.97-6.05,10.97-6.05,21.31-12.3c4.09-2.79,5.03-0.41,2.63,4.87
			c-9.82,18.44-9.82,18.44-19.49,34.92c20.48-16.84,22.61-18.61,35.3-31.76c1.63-2.18,3.29-4.51,4.92-6.75
			c-1.91-22.14-2.24-23.11-21.95-66.1C853.07,755.99,853.07,755.99,811.79,767.63z"/>
		<path class="st0" d="M921.04,792.7c14.71-21.76,24.33-55.32,28.28-82.63c-16.97,11.64-16.97,11.64-38.09,22.84
			C922.65,771.53,923.37,773.82,921.04,792.7z"/>
		<path class="st0" d="M63.33,494.33c-11.36,1-11.36,1-20.95,2.27c-2.32,0.33-3.82-5.5-3.37-13.02c1.35-17.89,1.35-17.89,3.32-35.66
			c0.96-7.52,3.62-14.26,5.94-15.15h0.36c58.72-17.28,58.72-17.28,163.85-33.92c0.61-0.11,0.61-0.11,1.3-0.22
			c8.21-0.86,14.38,6.58,13.52,16.78c-2.24,34.97-2.24,34.97-3.68,70.55c8.21-0.25,8.21-0.25,16.64-0.72
			c2.18-52.36,2.18-52.36,6.03-102.67c-0.16-0.44-0.16-0.44-0.44-0.66c-65.13-78.21-65.13-78.21-101.68-128.88
			c-12.08,33.87-12.08,33.87-22.75,71.52c17.53-6.63,17.53-6.63,36.79-12.72c6.19-1.99,9.78,3.12,8.07,11.36
			c-4.5,23.25-4.5,23.25-8.43,47.13c-1.33,9.01-7.55,17.28-13.77,18.61c-0.08,0-0.08,0-0.39,0.22
			c-71.44,19.27-73.76,20.73-106.18,36.49c-6.39,3.18-8.76,6.77-10.7,19.49c-0.69,4.37-1.52,9.04-2.35,14.6
			C35.3,525.46,35.3,525.46,67.18,608.2C63.11,551.97,63.11,551.97,63.33,494.33z"/>
		<path class="st0" d="M644.51,183.08c7.19,47.8,7.19,47.8,13.46,103.47c33.51,3.23,33.51,3.23,65.63,7.27
			c8.98,1.08,17.44,9.59,18.77,18.74c3.12,25.85,3.12,25.85,5.86,52.78c0.94,9.98-5.92,17.53-15.48,16.78
			c-0.11,0.11-0.11,0.11-0.39-0.06c-173.77-8.4-163.63-8.4-347.88-5.89c-10.75,0.5-18.97-7.68-18.27-18.05
			c0.06-0.33,0.06-0.33,0.14-0.55c2.49-36.19,2.49-36.19,5.25-70.36c-6.33,0.44-16.53,0.44-22.97,1.11
			c-4.7,53.88-4.7,53.88-8.27,112.13c0.25,0.22,0.25,0.22,0.55,0.5c118.02,119.23,118.02,119.23,242.69,242.36
			c0.88-65.63,0.88-60.9,1.02-127.89c-41.85-0.08-41.85-0.08-84.18-0.14c-11.75,0-21.18-9.59-21.18-21.23v-0.61
			c0.11-28.14-0.16-36.99-0.11-64.88c0.16-11.44,9.65-20.6,21.18-20.65c180.77,3.79,181.16,7.93,328.28,18.61
			c3.68,0.28,7.13,2.35,9.79,5.89c4.92,2.93,8.82,9.79,9.37,17.25c1.66,33.39,1.66,33.39,2.35,67.34c6.66,0.22,9.73,0.22,16.2,0.41
			c-2.29-62.97-3.68-72.84-10.92-123.41c-0.72-0.88-1.27-1.49-1.91-2.35C756.09,280.75,756.09,280.75,644.51,183.08z"/>
		<path class="st0" d="M121.06,444.68c67.73,100.27,67.73,100.27,165.95,215.66c0.66,0.83,1.49,1.88,2.1,2.68
			c50.81,3.37,50.81,3.37,104.91,5.72c-0.39-10.15-0.39-10.15-0.75-20.48c-36.52-1.24-36.52-1.24-71.63-2.96
			c-0.33-0.06-0.33-0.06-0.47,0.03c-10.15-0.58-18.91-9.81-19.41-20.65C301,445.93,301,445.93,314.27,283.29
			c0.08-0.83,0.22-1.66,0.47-2.38c0.22-2.27,0.22-2.27,0.64-4.78c-0.08-0.11-0.08-0.11,0.05-0.44c1.16-8.54,9.73-16.56,19.3-17.83
			c23.8-2.46,33.95-2.46,58.47-4.84c10.12-0.72,17.86,5.83,17.25,14.73c-2.49,33.67-2.49,33.67-4.45,69.53
			c73.18-2.27,62.98-2.27,137.56-2.38c-112.27-96.98-112.27-96.98-202.14-163.08c-51.86,10.26-51.86,11.61-98.58,24.08
			c-1.58,4.12-5.12,14.96-6.3,18.77c2.38-0.61,25.27-8.51,43.02-12.94c15.81-4.01,28.58-8.4,25.07,5.09
			C281.95,341.51,284,332,273.63,502.74c0.06,0.58,0.06,1.05,0.06,1.71c-0.14,10.89-7.96,19.9-17.42,19.85
			c-24.8,0.08-24.8,0.08-48.13,0c-0.14,0-0.14,0-0.36-0.06c-8.24,0.28-14.6-8.29-14.54-18.69c1.02-34.69,1.02-34.69,2.93-68.95
			C155.53,440.42,155.53,440.42,121.06,444.68z"/>
		<path class="st0" d="M71.3,671.87c5.72,24.47,5.72,24.47,11.94,47.58c3.04,1.71,5.06,3.79,8.46,5.72
			c-9.54-36.82-8.93-34.14-16.56-73.23c-6.72-11.75-13.1-27.81-18.02-39.73c-21.56-52.17-23.44-60.85-35.66-119.43
			c-0.88,34.25-0.88,34.25,0.17,68.39c3.29,0.72,3.29,0.72,7.52,1.83c1.6,0.36,3.4,6.47,3.93,13.66
			c1.88,19.49,1.88,19.49,4.45,38.95c0.97,6.66,0.44,11.19-1.3,10.09h-0.06c-7.16-6-8.87-7.55-11-11.22
			c0.75,4.12,1.52,8.21,2.4,12.33c8.13,12.05,10.17,13.3,35.55,29.19C66.02,657.1,69.86,664.6,71.3,671.87z"/>
		<path class="st0" d="M215.35,717.65c148.56,17.78,148.56,17.78,324.88,22.45c11-0.14,19.77,7.74,19.66,17.55
			c-1.22,31.65-1.22,31.65-2.19,61.23c9.54-0.39,9.54-0.39,19.63-0.89c2.76-56.51,2.76-56.51,4.78-120.01
			c-1.27-0.77-2.68-1.77-3.73-2.96C456.67,577.54,456.67,577.54,338.26,456.62c-0.8,75.03-0.8,75.03,0.39,149.67
			c36.32,0.97,36.32,0.97,73.9,1.77c11.39,0.14,20.84,9.48,20.98,20.9c0.77,30.71,0.77,30.71,1.55,60.54
			c0.22,10.64-8.51,18.85-19.6,18.52c-0.39-0.08-0.39-0.08-0.61-0.08c-163.91-12.47-160.5-11.75-279.16-32.29
			c-5.53-1.33-11.06-9.26-12.33-18.05l-0.05-0.39c-4.45-27.76-5.11-33.2-7.52-64.49c-3.35-0.25-6.11-0.25-9.34-0.53
			c4.73,48.08,4.73,48.08,11.89,93.72c1.55,1.22,3.21,2.82,4.67,4.89c83.6,102.07,83.6,102.07,183.56,192.74
			c-9.87-36.44-9.87-36.44-18.66-78.48c-30.44-5.83-30.44-5.83-58.72-12.19c-7.52-1.91-15.07-9.87-16.78-17.47
			c0.06-0.08,0.06-0.08-0.16-0.47c-4.2-19.66-4.2-19.66-8.1-40.17c-0.44-2.02-0.55-3.79-0.22-5.28
			C203.33,721.6,208.14,716.38,215.35,717.65z"/>
		<path class="st0" d="M890.05,330.48c12.05,4.59,12.05,4.59,23.03,9.21c4.28,1.96,8.96,9.26,10.75,16.81
			c5.72,27.4,5.72,27.4,10.4,56.01c18.77,6.36,17.33,5.67,31.87,11.36c-47.69-94.82-47.35-93.6-124.13-187.87
			c-0.61-0.64-1.16-1.3-1.77-1.99c-27.87-10.81-27.87-10.81-59-20.87c1.38,4.23,2.35,7.63,3.84,12.08
			c23.17,7.35,28.97,10.09,48.24,17.14c6.03,2.29,12.52,9.34,14.71,15.95c29.91,128.33,28.2,123.6,38.54,276.23
			c0,9.48-5.22,17.55-11.58,17.77c-18.22,0.8-18.22,0.8-38.09,1.27h-0.33c-7.68,0.3-13.93-7.82-13.82-18.14
			c-0.11-34.69-0.11-34.69-1.38-69.75c-58.61-2.74-58.61-2.74-125.9-5.39C796.2,575.05,796.2,575.05,866.33,669.66
			c0.33,0.52,0.55,0.94,0.83,1.49c35.61-8.07,35.61-8.07,64.14-16.39c1.11-7.49,1.11-7.49,2.43-15.37
			c-14.38,4.15-14.38,4.15-30.8,8.07c-0.11-0.08-0.11-0.08-0.22-0.08c-5.25,1.3-8.82-4.81-7.8-13.77
			c4.78-65.24,5.45-74.39,5.17-124.29c-0.17-18.83-0.5-37.43-2.24-56.09c-4.84-50.53-5.61-54.93-15.09-110.63
			c-1.22-5.39-0.11-9.26,2.13-10.87C885.99,330.2,887.79,329.65,890.05,330.48z"/>
		<path class="st0" d="M566.91,56.08c11.25,52.64,11.42,52.53,22.89,152.38c0.33,7.8-7.36,13.8-17.5,13.35
			c-28.39-1.05-28.39-1.05-56.97-1.49h-0.17c-10.48,0-18.99-6.58-18.99-14.38c0.39-25.02,0.39-25.02,0.77-47.52
			c-55.56,1.99-55.56,1.99-109.53,6.8c96.43,69.94,96.43,69.94,210.52,168.72c0.78,0.75,1.58,1.69,2.3,2.57
			c57.64,2.96,57.64,2.96,111.96,7.3c-0.89-9.26-0.89-9.26-1.71-18.27c-30.22-2.85-30.22-2.85-61.79-5.28
			c-1.96,0.61-4.23,0.88-6.69,0.66c-10.48-0.61-19.77-9.1-20.32-18.94c-12.61-131.59-12.61-131.59-26.92-212.87v-0.16
			c-1.22-3.51,4.7-5.47,12.38-4.56c19.32,2.93,19.32,2.93,37.87,6.25c7.19,1.33,14.49,5.36,16.09,9.07
			c5.69,14.1,5.69,14.1,11.83,30.58c53.3,12.74,53.3,12.74,100.71,28.2c-94.49-64.91-94.49-64.91-183.67-105.24
			c-0.44-0.22-0.44-0.22-1-0.33c-16.5-1.58-23.14-2.24-32.04-2.9C559.89,50.6,566.03,52.18,566.91,56.08z"/>
		<path class="st0" d="M832.53,677.67c-80.06-97.84-80.06-97.84-188.29-214.72c-1.19-1.27-3.23-4.28-4.12-5.64
			c-55.37-2.32-64.8-2.93-118.62-3.76c-0.05,5.28,0.31,14.15,0.31,19.32c38.59,0.86,46.72,1.55,83.32,3.62
			c11.36,0.19,20.51,9.65,20.68,21.12c-2.63,185.61-2.63,177.81-12.77,333.01c-0.83,7.96-9.45,14.82-19.6,15.59
			c-27.23,1.46-27.23,1.46-55.32,2.43h-0.39c-10.31,0.19-18.66-6-18.55-13.96c0.44-26.62,0.44-26.62,0.55-55.23
			c-78.43-1.22-78.43-1.22-153.98-5.86c115.25,93.58,115.25,93.58,215.11,156.03c0.44,0.22,0.55,0.44,0.99,0.66
			c58.94-6.91,58.94-6.91,114.2-17.33c1.93-4.89,1.93-4.89,3.29-9.7c-26.98,5.53-26.98,5.53-55.32,10.25
			c-0.44,0.14-0.44,0.14-0.44,0.08c-7.41,1.05-13.32-1.3-13.88-5.64c-1.24-1.44-1.8-3.12-1.24-5.28
			c16.06-119.23,16.06-119.23,26.01-283.47v-0.61c0.31-11.11,9.37-20.54,20.13-20.71c25.57-0.83,25.57-0.83,50.31-1.77
			c9.95-0.36,17.42,8.13,16.86,19.05c-2.16,37.98-2.16,37.98-5,74.81C787.63,684.33,787.63,684.33,832.53,677.67z"/>
		<path class="st0" d="M271.5,223.63c-28.06,7.74-29.44,9.15-55.48,16.39c-6.69,2.1-10.39-1.69-8.4-7.99
			c0.31-0.47,0.31-0.47,0.22-0.47c5.64-15.31,7.24-21.51,12.77-35.69c2.21-5.5,9.51-12,16.15-14.38c0.44-0.11,0.44-0.11,0.83-0.36
			c0.8-0.28,1.63-0.66,2.55-0.97c79.48-25.38,162.88-40.72,274.43-43.96c9.34,0.14,16.92,4.92,17.31,10.84
			c0.83,21.48,0.83,21.48,1.3,45.28c9.73,0.28,9.73,0.28,19.05,0.55c-2.02-35.5-2.02-35.5-3.84-65.57
			c-1.58-0.55-3.12-1.16-4.64-1.99c-85.23-41.77-85.23-41.77-151.25-60.29c-6.74,13.02-6.74,13.02-13.88,29.75
			c24.02-3.95,24.02-3.95,48.1-7.02c8.43-0.88,14.24,1.52,13.91,5.25c-2.07,11.39-2.07,11.39-4.26,24.02
			c-0.78,4.95-8.57,9.68-17.25,10.48c-0.39,0.08-0.39,0.08-0.75,0.14c-134.19,25.07-134.19,25.07-235.06,63.44
			c-6.3,2.57-6.08-2.54-5.47-6.11l-1.3,1.99c-5.14,8.54-9.62,17.22-19.66,36.21c33.95,41.16,33.95,41.16,94.93,109.81
			C261.71,270.44,259.64,277.84,271.5,223.63z"/>
		<path class="st0" d="M75.8,380.63c27.26-10.48,27.26-10.48,62.39-20.85c1.52-7.85,1.52-7.85,3.01-15.65
			c-18.27,5.53-18.27,5.53-34.53,11.03l-0.33,0.39c-3.73,1.27-5.92-2.1-5.25-8.07c-0.28-1.6-0.14-3.95,0.53-6.58
			c18.96-54.6,27.39-80.95,38.01-103.72c2.32-4.89,4.67-9.54,7.21-14.32c-13.91,12.19-23.17,32.59-32.34,50.26
			c-2.4,6.28-9.7,15.56-13.3,17.72c-9.37,6-5.89,4.06-14.4,10.23c-0.25,0.36-0.25,0.36-0.31,0.36c-2.88,2.27-3.32-0.64-0.88-6.52
			c7.74-17.78,7.74-17.78,15.59-34c-11.14,11.72-15.07,15.9-19.6,22.03c-3.46,6.27-6.99,12.58-10.23,18.99
			c-4.53,24.38-3.98,27.17,4.29,71.41C76.27,375.04,76.16,377.95,75.8,380.63z"/>
		<path class="st0" d="M804.05,170.86c26.95,13.08,26.95,13.08,50.7,26.87c-2.46-4.23-2.46-4.23-5.09-8.43
			c-15.15-9.12-15.15-9.12-31.84-18.08c-0.39-0.33-0.39-0.33-0.39-0.28c-5.25-2.57-11.53-8.24-14.16-12.47
			c-18.66-24.27-27.01-35.11-36.1-44.12c-1.55,2.63-3.84,3.43-11.47,0c-15.59-6.41-15.59-6.41-32.21-12.66l-0.05,0.06
			c-6.3-2.27-13.35-6.39-15.2-9.09c-6.8-8.4-6.8-8.4-13.71-15.59c-34.03-10.12-34.03-10.12-70.3-18.44
			c88.24,44.04,88.24,44.04,178.11,110.55C803.05,169.84,803.72,170.5,804.05,170.86z"/>
		<path class="st0" d="M301.52,132.07c50.67-11.78,50.67-11.78,105.3-20.37c0.83-4.15,2.13-7.55,2.96-11.45
			c-24.69,3.54-24.69,3.54-49.18,7.91c-7.91,1.63-12.83-0.39-11.03-4.4c0.28-0.44,0.14-0.69,0.5-1.11
			c12.69-26.07,11.31-22.64,23.72-40.55c-0.05-0.36,0.31-0.83,1.13-1.41c7.08-6.64,9.18-8.51,13.32-10.75
			c-4.67,1.16-9.48,2.35-14.07,3.73c-10.17,5.81-12.19,8.02-26.57,24.14c-1.6,2.43-8.43,6-14.82,7.68
			c-17.83,5.39-17.83,5.39-34.72,11l-0.52,0.22c-5.86,2.1-8.71,1.69-6.77-0.83c7.38-7.93,7.38-7.93,14.99-14.73
			c-23.94,10.64-46.58,20.98-68.4,35.52C248.25,115.62,281.53,120.57,301.52,132.07z"/>
		<path class="st0" d="M541.12,58.12c-27.15-0.83-27.15-0.83-54.43-0.5c-7.41,0.28-13.22-1.24-12.83-3.34l-0.14-0.06
			c1.16-4.62,1.16-4.62,1.82-8.51c0-0.11,0.11-0.22,0.16-0.33l0.33-2.1c-14.32,0.55-31.21,1.49-52.22,2.65
			c-9.45,1.22-10.97-0.11-13.38-1.08c-3.76,2.32-5.06,3.76-11.42,10.45c63.72,12.85,63.72,12.85,147.43,47.96
			C543.83,76.98,543.83,76.98,541.12,58.12z"/>
		<path class="st0" d="M194.87,152.72c10.86-6.77,10.86-6.77,22.28-13.38c4.76-2.6,6.86-2.13,4.06,1.41
			c-9.54,13.44-9.54,13.44-19.1,28.64c30.63-13.99,30.63-13.99,65.1-26.76c-32.68-12.74-34.7-13.57-49.29-12.41
			c-6.47,4.73-12.8,9.62-19.05,14.76c-5.06,5.61-9.4,10.59-13.38,15.2l0.36-0.11C188.62,157.45,192.02,154.69,194.87,152.72z"/>
	</g>
	<g>
		<path class="st0" d="M1290.09,789.61v26.09h-114.07c-16.9,0-25.35-8.69-25.35-26.09V667.83c0-17.4,8.45-26.1,25.35-26.1h113.08
			v26.1h-93.2c-4.98,0-8.29,0.83-9.94,2.48c-1.67,1.65-2.49,4.98-2.49,9.94v33.56h103.14v26.09h-103.14v37.28
			c0,4.98,0.83,8.29,2.49,9.94c1.65,1.67,4.96,2.49,9.94,2.49H1290.09z"/>
		<path class="st0" d="M1486.08,641.73v151.36c0,8.29-2.39,14.45-7.2,18.51s-11.02,6.09-18.63,6.09c-12.6,0-21.97-4.89-28.09-14.66
			l-73.32-115.82c-1.99-2.81-3.32-4.23-3.97-4.23c-2.33,0-3.49,1.65-3.49,4.98V815.7h-31.81V663.35c0-7.46,2.36-13.25,7.08-17.4
			c4.72-4.14,11.22-6.21,19.5-6.21c12.75,0,21.95,4.56,27.59,13.67l73.82,116.57c0.15,0.33,0.41,0.78,0.74,1.37
			c0.33,0.58,0.63,1.04,0.87,1.37c0.25,0.33,0.57,0.66,0.99,0.99c0.41,0.33,0.87,0.5,1.37,0.5c1.82,0,2.74-1.41,2.74-4.23V641.73
			H1486.08z"/>
		<path class="st0" d="M1673.89,667.83h-67.59c-21.21,0-35.76,4.27-43.62,12.8c-7.87,8.54-11.8,24.57-11.8,48.09
			c0,23.53,3.94,39.56,11.8,48.09c7.87,8.54,22.41,12.81,43.62,12.81h26.34c4.96,0,8.27-0.83,9.94-2.49
			c1.65-1.65,2.48-4.96,2.48-9.94v-46.72h32.81v59.15c0,17.4-8.45,26.09-25.35,26.09h-61.64c-14.42,0-26.6-2.11-36.54-6.33
			c-9.94-4.23-17.56-10.45-22.86-18.64c-5.31-8.2-9.04-17.28-11.19-27.22c-2.15-9.94-3.23-21.53-3.23-34.8
			c0-13.25,1.08-24.86,3.23-34.8c2.15-9.94,5.88-19.01,11.19-27.22c5.3-8.2,12.92-14.41,22.86-18.63
			c9.94-4.23,22.12-6.34,36.54-6.34h83.01V667.83z"/>
		<path class="st0" d="M1743.08,815.7h-32.8V641.73h32.8V815.7z"/>
		<path class="st0" d="M1946.13,641.73v151.36c0,8.29-2.39,14.45-7.2,18.51c-4.81,4.06-11.02,6.09-18.63,6.09
			c-12.6,0-21.97-4.89-28.09-14.66l-73.32-115.82c-1.99-2.81-3.32-4.23-3.97-4.23c-2.33,0-3.49,1.65-3.49,4.98V815.7h-31.81V663.35
			c0-7.46,2.36-13.25,7.08-17.4c4.72-4.14,11.22-6.21,19.5-6.21c12.75,0,21.95,4.56,27.59,13.67l73.82,116.57
			c0.15,0.33,0.41,0.78,0.74,1.37c0.33,0.58,0.63,1.04,0.87,1.37c0.25,0.33,0.57,0.66,0.99,0.99c0.41,0.33,0.87,0.5,1.37,0.5
			c1.82,0,2.74-1.41,2.74-4.23V641.73H1946.13z"/>
		<path class="st0" d="M2122.09,789.61v26.09h-114.07c-16.9,0-25.35-8.69-25.35-26.09V667.83c0-17.4,8.45-26.1,25.35-26.1h113.08
			v26.1h-93.2c-4.98,0-8.29,0.83-9.94,2.48c-1.67,1.65-2.49,4.98-2.49,9.94v33.56h103.14v26.09h-103.14v37.28
			c0,4.98,0.83,8.29,2.49,9.94c1.65,1.67,4.96,2.49,9.94,2.49H2122.09z"/>
		<path class="st0" d="M2290.1,789.61v26.09h-114.07c-16.9,0-25.35-8.69-25.35-26.09V667.83c0-17.4,8.45-26.1,25.35-26.1h113.08
			v26.1h-93.2c-4.98,0-8.29,0.83-9.94,2.48c-1.67,1.65-2.49,4.98-2.49,9.94v33.56h103.14v26.09h-103.14v37.28
			c0,4.98,0.83,8.29,2.49,9.94c1.65,1.67,4.96,2.49,9.94,2.49H2290.1z"/>
		<path class="st0" d="M2352.37,815.7h-32.8V667.83c0-17.4,8.45-26.1,25.35-26.1h87.73c15.57,0,26.72,4.6,33.43,13.8
			c6.71,9.19,10.06,22.9,10.06,41.13c0,38.77-13.42,58.16-40.26,58.16h-17.4v1.24l61.14,59.65h-42.25l-56.16-56.42
			c-5.47-5.79-8.21-10.69-8.21-14.66v-3.97c0-3.65,1.28-6.55,3.85-8.7c2.57-2.15,6.18-3.23,10.81-3.23h33.8
			c8.45,0,14.04-2.56,16.78-7.7c2.74-5.14,4.1-13.26,4.1-24.36c0-10.6-1.62-18.06-4.85-22.36c-3.23-4.31-9.82-6.46-19.76-6.46
			h-52.93c-4.98,0-8.29,0.83-9.94,2.48c-1.67,1.65-2.49,4.98-2.49,9.94V815.7z"/>
		<path class="st0" d="M2539.86,815.7h-32.8V641.73h32.8V815.7z"/>
		<path class="st0" d="M2742.92,641.73v151.36c0,8.29-2.39,14.45-7.2,18.51s-11.02,6.09-18.63,6.09c-12.6,0-21.97-4.89-28.09-14.66
			l-73.32-115.82c-1.99-2.81-3.32-4.23-3.97-4.23c-2.33,0-3.49,1.65-3.49,4.98V815.7h-31.81V663.35c0-7.46,2.36-13.25,7.08-17.4
			c4.72-4.14,11.22-6.21,19.5-6.21c12.75,0,21.95,4.56,27.59,13.67l73.82,116.57c0.15,0.33,0.41,0.78,0.74,1.37
			c0.33,0.58,0.63,1.04,0.87,1.37c0.25,0.33,0.57,0.66,0.99,0.99c0.41,0.33,0.87,0.5,1.37,0.5c1.82,0,2.74-1.41,2.74-4.23V641.73
			H2742.92z"/>
		<path class="st0" d="M2930.73,667.83h-67.59c-21.21,0-35.76,4.27-43.62,12.8c-7.87,8.54-11.8,24.57-11.8,48.09
			c0,23.53,3.94,39.56,11.8,48.09c7.87,8.54,22.41,12.81,43.62,12.81h26.34c4.96,0,8.27-0.83,9.94-2.49
			c1.65-1.65,2.48-4.96,2.48-9.94v-46.72h32.81v59.15c0,17.4-8.45,26.09-25.35,26.09h-61.64c-14.42,0-26.6-2.11-36.54-6.33
			c-9.94-4.23-17.56-10.45-22.86-18.64c-5.31-8.2-9.04-17.28-11.19-27.22c-2.15-9.94-3.23-21.53-3.23-34.8
			c0-13.25,1.08-24.86,3.23-34.8c2.15-9.94,5.88-19.01,11.19-27.22c5.3-8.2,12.92-14.41,22.86-18.63
			c9.94-4.23,22.12-6.34,36.54-6.34h83.01V667.83z"/>
	</g>
	<g>
		<path class="st1" d="M1150.66,561.89l119.76-285.31c5.74-13.62,12.31-22.99,19.73-28.13c7.4-5.14,18.21-7.71,32.44-7.71
			c13.6,0,24.27,2.65,31.97,7.94c7.71,5.29,14.44,14.6,20.19,27.91l119.75,285.31h-63.05l-32.66-80.29h-152.87l-32.2,80.29H1150.66z
			 M1313.5,309.69l-52.16,129.27h122.02l-51.71-129.27c-3.34-8.77-6.35-13.15-9.07-13.15
			C1319.86,296.54,1316.83,300.91,1313.5,309.69z"/>
		<path class="st1" d="M1578.08,561.89h-59.87V291.99c0-31.75,15.42-47.62,46.26-47.62h160.12c28.42,0,48.77,8.39,61.02,25.16
			c12.25,16.79,18.37,41.81,18.37,75.07c0,70.76-24.49,106.14-73.48,106.14h-31.75v2.28l111.59,108.86h-77.12L1630.7,458.92
			c-9.98-10.58-14.96-19.51-14.96-26.76v-7.26c0-6.65,2.34-11.95,7.03-15.88c4.69-3.92,11.26-5.89,19.74-5.89h61.68
			c15.43,0,25.63-4.69,30.62-14.07c4.98-9.36,7.48-24.18,7.48-44.45c0-19.35-2.95-32.96-8.84-40.83
			c-5.9-7.86-17.91-11.79-36.06-11.79h-96.61c-9.07,0-15.13,1.51-18.15,4.54c-3.03,3.02-4.54,9.06-4.54,18.14V561.89z"/>
		<path class="st1" d="M2168.31,315.58l-81.2,211.84c-5.45,13.6-11.2,23.35-17.24,29.25c-6.05,5.9-15.42,8.84-28.12,8.84
			c-12.71,0-22.08-2.94-28.13-8.84c-6.06-5.9-11.79-15.65-17.24-29.25l-81.2-211.84c-2.72-6.95-5.29-10.43-7.7-10.43
			c-3.34,0-5,3.18-5,9.53l1.36,247.22h-59.87V282.47c0-27.82,17.07-41.73,51.26-41.73c16.32,0,28.41,3.48,36.28,10.43
			c7.86,6.96,14.36,17.09,19.51,30.39l82.1,211.83c3.63,7.87,6.5,11.8,8.62,11.8c2.11,0,4.98-3.93,8.61-11.8l82.1-211.83
			c5.14-13.31,11.64-23.43,19.51-30.39c7.86-6.95,19.96-10.43,36.29-10.43c34.16,0,51.26,13.91,51.26,41.73v279.42h-59.88
			l1.81-247.22c0-6.34-1.81-9.53-5.45-9.53C2173.6,305.15,2171.03,308.63,2168.31,315.58z"/>
		<path class="st1" d="M2263.25,561.89L2383,276.58c5.74-13.62,12.31-22.99,19.73-28.13c7.4-5.14,18.21-7.71,32.44-7.71
			c13.6,0,24.27,2.65,31.97,7.94c7.71,5.29,14.44,14.6,20.19,27.91l119.75,285.31h-63.05l-32.66-80.29H2358.5l-32.2,80.29H2263.25z
			 M2426.09,309.69l-52.16,129.27h122.02l-51.71-129.27c-3.34-8.77-6.35-13.15-9.07-13.15S2429.42,300.91,2426.09,309.69z"/>
		<path class="st1" d="M2934.72,244.37v276.24c0,15.13-4.39,26.39-13.15,33.8c-8.78,7.42-20.11,11.11-34.03,11.11
			c-22.98,0-40.07-8.91-51.26-26.76l-133.81-211.39c-3.63-5.13-6.05-7.7-7.25-7.7c-4.24,0-6.35,3.03-6.35,9.07v233.15h-58.05V283.83
			c0-13.6,4.31-24.18,12.92-31.75c8.62-7.55,20.49-11.34,35.61-11.34c23.29,0,40.07,8.32,50.35,24.95l134.72,212.73
			c0.3,0.61,0.75,1.44,1.36,2.5c0.61,1.06,1.14,1.89,1.59,2.49c0.45,0.62,1.05,1.22,1.81,1.82c0.75,0.61,1.59,0.91,2.5,0.91
			c3.33,0,4.98-2.56,4.98-7.71V244.37H2934.72z"/>
	</g>
</g>
</svg>
